<svg width="237" height="258" viewBox="0 0 237 258" fill="none" xmlns="http://www.w3.org/2000/svg">
<path d="M159.582 144.398L224.068 80.1112C226.464 77.7243 228.364 74.8866 229.658 71.7618C230.951 68.637 231.613 65.2869 231.606 61.9049L231.715 9.94413C231.709 7.27852 230.679 4.71708 228.838 2.78906L105.127 126.228C102.722 128.611 100.814 131.447 99.5111 134.572C98.2087 137.697 97.5381 141.049 97.5381 144.434C97.5381 147.819 98.2087 151.171 99.5111 154.296C100.814 157.421 102.722 160.257 105.127 162.64L192.353 249.594C194.744 251.972 197.58 253.857 200.699 255.14C203.818 256.423 207.16 257.079 210.533 257.07C213.905 257.062 217.243 256.389 220.356 255.091C223.469 253.792 226.296 251.893 228.674 249.502C231.053 247.112 232.938 244.276 234.221 241.156C235.504 238.037 236.16 234.696 236.151 231.323C236.143 227.95 235.47 224.612 234.172 221.499C232.873 218.386 230.974 215.56 228.583 213.181L159.582 144.398Z" fill="#008C62"/>
<path d="M221.627 0.00245386H27.3115C11.5995 0.00245386 0.00211164 11.873 0.00211164 28.0766V230.804C-0.0419627 234.248 0.604311 237.667 1.9028 240.858C3.2013 244.049 5.12571 246.947 7.56251 249.382C9.9993 251.817 12.8991 253.74 16.0909 255.036C19.2827 256.332 22.7017 256.976 26.1463 256.93C29.5936 256.989 33.0174 256.353 36.2139 255.061C39.4104 253.769 42.3141 251.847 44.752 249.409C47.1899 246.971 49.1121 244.068 50.4042 240.871C51.6962 237.675 52.3315 234.251 52.2724 230.804V50.0151H181.537L228.873 2.91546C227.925 1.96501 226.794 1.21678 225.549 0.71608C224.303 0.215376 222.969 -0.0273974 221.627 0.00245386Z" fill="#00E6A0"/>
</svg>
