<svg width="26" height="25" viewBox="0 0 26 25" fill="none" xmlns="http://www.w3.org/2000/svg">
<path d="M19.2759 9.19389L14.2707 0.553214C14.0535 0.184405 13.6879 0 13.3222 0C12.9565 0 12.5908 0.184405 12.3737 0.566386L7.36846 9.19389H1.8947C1.26619 9.19389 0.751953 9.78662 0.751953 10.5111C0.751953 10.6296 0.763381 10.7482 0.797663 10.8667L3.70024 23.0769C3.96307 24.1834 4.84299 25 5.89432 25H20.75C21.8014 25 22.6813 24.1834 22.9555 23.0769L25.8581 10.8667L25.8924 10.5111C25.8924 9.78662 25.3782 9.19389 24.7496 9.19389H19.2759ZM9.89393 9.19389L13.3222 3.39831L16.7504 9.19389H9.89393ZM13.3222 19.7313C12.0652 19.7313 11.0367 18.5458 11.0367 17.0969C11.0367 15.6481 12.0652 14.4626 13.3222 14.4626C14.5792 14.4626 15.6077 15.6481 15.6077 17.0969C15.6077 18.5458 14.5792 19.7313 13.3222 19.7313Z" fill="#161B23"/>
</svg>
