<svg width="12" height="12" viewBox="0 0 12 12" fill="none" xmlns="http://www.w3.org/2000/svg">
<path fill-rule="evenodd" clip-rule="evenodd" d="M5.99984 0.166668C2.77809 0.166668 0.166504 2.78233 0.166504 6.00992C0.166504 8.59117 1.83775 10.7816 4.15592 11.5539C4.44759 11.6076 4.55375 11.4273 4.55375 11.2722C4.55375 11.1339 4.54909 10.7658 4.54617 10.2788C2.92334 10.6317 2.58092 9.49534 2.58092 9.49534C2.31609 8.81984 1.93342 8.64017 1.93342 8.64017C1.40375 8.2785 1.97367 8.2855 1.97367 8.2855C2.55875 8.32634 2.86675 8.8875 2.86675 8.8875C3.38709 9.78 4.23234 9.52217 4.56425 9.37283C4.61792 8.99542 4.76842 8.73817 4.93525 8.59234C3.64025 8.44475 2.27817 7.94309 2.27817 5.70425C2.27817 5.06667 2.50567 4.54459 2.87842 4.13625C2.81834 3.98867 2.61825 3.39425 2.93559 2.59042C2.93559 2.59042 3.42559 2.43292 4.53975 3.18892C5.01562 3.05913 5.50659 2.99303 5.99984 2.99233C6.49567 2.99467 6.99442 3.05942 7.4605 3.18892C8.57409 2.43292 9.06292 2.58983 9.06292 2.58983C9.38142 3.39425 9.18075 3.98867 9.12125 4.13625C9.49459 4.54459 9.72092 5.06667 9.72092 5.70425C9.72092 7.94892 8.3565 8.443 7.05742 8.58767C7.26684 8.76792 7.45292 9.12434 7.45292 9.66975C7.45292 10.4503 7.44592 11.0808 7.44592 11.2722C7.44592 11.4285 7.55092 11.6105 7.84725 11.5533C9.00884 11.1637 10.0186 10.4189 10.7339 9.4242C11.4491 8.42946 11.8337 7.2351 11.8332 6.00992C11.8332 2.78233 9.221 0.166668 5.99984 0.166668Z" fill="#9CA3AF"/>
</svg>
