<svg width="85" height="84" viewBox="0 0 85 84" fill="none" xmlns="http://www.w3.org/2000/svg">
<path d="M72.9455 0H11.8546C8.81664 0 5.90313 1.20681 3.75498 3.35496C1.60684 5.5031 0.400024 8.41661 0.400024 11.4545V72.5455C0.400024 75.5834 1.60684 78.4969 3.75498 80.645C5.90313 82.7932 8.81664 84 11.8546 84H72.9455C75.9834 84 78.8969 82.7932 81.0451 80.645C83.1932 78.4969 84.4 75.5834 84.4 72.5455V11.4545C84.4 8.41661 83.1932 5.5031 81.0451 3.35496C78.8969 1.20681 75.9834 0 72.9455 0ZM23.3091 64.9091H19.4909C18.4783 64.9091 17.5071 64.5068 16.7911 63.7908C16.075 63.0747 15.6728 62.1036 15.6728 61.0909C15.6728 60.0783 16.075 59.1071 16.7911 58.391C17.5071 57.675 18.4783 57.2727 19.4909 57.2727H23.3091C24.3218 57.2727 25.2929 57.675 26.009 58.391C26.725 59.1071 27.1273 60.0783 27.1273 61.0909C27.1273 62.1036 26.725 63.0747 26.009 63.7908C25.2929 64.5068 24.3218 64.9091 23.3091 64.9091ZM23.3091 45.8182H19.4909C18.4783 45.8182 17.5071 45.4159 16.7911 44.6999C16.075 43.9838 15.6728 43.0126 15.6728 42C15.6728 40.9874 16.075 40.0162 16.7911 39.3001C17.5071 38.5841 18.4783 38.1818 19.4909 38.1818H23.3091C24.3218 38.1818 25.2929 38.5841 26.009 39.3001C26.725 40.0162 27.1273 40.9874 27.1273 42C27.1273 43.0126 26.725 43.9838 26.009 44.6999C25.2929 45.4159 24.3218 45.8182 23.3091 45.8182ZM23.3091 26.7273H19.4909C18.4783 26.7273 17.5071 26.325 16.7911 25.609C16.075 24.8929 15.6728 23.9217 15.6728 22.9091C15.6728 21.8964 16.075 20.9253 16.7911 20.2092C17.5071 19.4932 18.4783 19.0909 19.4909 19.0909H23.3091C24.3218 19.0909 25.2929 19.4932 26.009 20.2092C26.725 20.9253 27.1273 21.8964 27.1273 22.9091C27.1273 23.9217 26.725 24.8929 26.009 25.609C25.2929 26.325 24.3218 26.7273 23.3091 26.7273ZM65.3091 64.9091H38.5818C37.5692 64.9091 36.598 64.5068 35.882 63.7908C35.1659 63.0747 34.7637 62.1036 34.7637 61.0909C34.7637 60.0783 35.1659 59.1071 35.882 58.391C36.598 57.675 37.5692 57.2727 38.5818 57.2727H65.3091C66.3218 57.2727 67.2929 57.675 68.009 58.391C68.725 59.1071 69.1273 60.0783 69.1273 61.0909C69.1273 62.1036 68.725 63.0747 68.009 63.7908C67.2929 64.5068 66.3218 64.9091 65.3091 64.9091ZM65.3091 45.8182H38.5818C37.5692 45.8182 36.598 45.4159 35.882 44.6999C35.1659 43.9838 34.7637 43.0126 34.7637 42C34.7637 40.9874 35.1659 40.0162 35.882 39.3001C36.598 38.5841 37.5692 38.1818 38.5818 38.1818H65.3091C66.3218 38.1818 67.2929 38.5841 68.009 39.3001C68.725 40.0162 69.1273 40.9874 69.1273 42C69.1273 43.0126 68.725 43.9838 68.009 44.6999C67.2929 45.4159 66.3218 45.8182 65.3091 45.8182ZM65.3091 26.7273H38.5818C37.5692 26.7273 36.598 26.325 35.882 25.609C35.1659 24.8929 34.7637 23.9217 34.7637 22.9091C34.7637 21.8964 35.1659 20.9253 35.882 20.2092C36.598 19.4932 37.5692 19.0909 38.5818 19.0909H65.3091C66.3218 19.0909 67.2929 19.4932 68.009 20.2092C68.725 20.9253 69.1273 21.8964 69.1273 22.9091C69.1273 23.9217 68.725 24.8929 68.009 25.609C67.2929 26.325 66.3218 26.7273 65.3091 26.7273Z" fill="black"/>
</svg>
