<svg width="67" height="68" viewBox="0 0 67 68" fill="none" xmlns="http://www.w3.org/2000/svg">
<path d="M29.9107 0V12.3636H23.2639L36.5575 24.7273L49.8512 12.3636H43.2044V0H29.9107ZM0 6.18182V12.3636H6.64683L18.6111 35.8236L14.1245 43.3964C13.5928 44.2618 13.2937 45.2818 13.2937 46.3636C13.2937 48.0032 13.9939 49.5755 15.2405 50.7348C16.487 51.8942 18.1776 52.5455 19.9405 52.5455H59.8214V46.3636H21.3363C20.9043 46.3636 20.5055 46.0236 20.5055 45.5909L20.6052 45.22L23.5962 40.1818H48.3557C50.8482 40.1818 53.0417 38.9145 54.1716 36.9982L67 15.3309L61.2173 12.3636H61.184L57.5283 18.5455L48.3557 34H25.0253L24.5933 33.1655L17.1488 18.5455L13.9916 12.3636L10.8676 6.18182H0ZM19.9405 55.6364C18.1776 55.6364 16.487 56.2877 15.2405 57.447C13.9939 58.6063 13.2937 60.1787 13.2937 61.8182C13.2937 63.4577 13.9939 65.0301 15.2405 66.1894C16.487 67.3487 18.1776 68 19.9405 68C21.7033 68 23.394 67.3487 24.6405 66.1894C25.887 65.0301 26.5873 63.4577 26.5873 61.8182C26.5873 60.1787 25.887 58.6063 24.6405 57.447C23.394 56.2877 21.7033 55.6364 19.9405 55.6364ZM53.1746 55.6364C51.4118 55.6364 49.7211 56.2877 48.4746 57.447C47.2281 58.6063 46.5278 60.1787 46.5278 61.8182C46.5278 63.4577 47.2281 65.0301 48.4746 66.1894C49.7211 67.3487 51.4118 68 53.1746 68C54.9375 68 56.6281 67.3487 57.8746 66.1894C59.1211 65.0301 59.8214 63.4577 59.8214 61.8182C59.8214 60.1787 59.1211 58.6063 57.8746 57.447C56.6281 56.2877 54.9375 55.6364 53.1746 55.6364Z" fill="white"/>
</svg>
