<svg width="12" height="10" viewBox="0 0 12 10" fill="none" xmlns="http://www.w3.org/2000/svg">
<path d="M3.83567 9.81448C8.23809 9.81448 10.6461 6.1669 10.6461 3.00406C10.6461 2.90023 10.6461 2.79698 10.6391 2.6949C11.1076 2.35571 11.512 1.93576 11.8332 1.45473C11.3963 1.6484 10.9328 1.77543 10.4583 1.83156C10.958 1.53235 11.3319 1.06177 11.5106 0.507398C11.0408 0.786165 10.5269 0.982656 9.991 1.0884C9.63015 0.704427 9.15277 0.450134 8.63279 0.364892C8.1128 0.27965 7.57922 0.368214 7.11466 0.616871C6.6501 0.865528 6.28047 1.26041 6.06301 1.74037C5.84555 2.22033 5.79239 2.75859 5.91175 3.27181C4.9601 3.22412 4.02911 2.97684 3.17921 2.54601C2.32932 2.11519 1.57953 1.51045 0.978504 0.771064C0.672439 1.29793 0.578681 1.92164 0.716316 2.51521C0.853952 3.10878 1.21263 3.62758 1.71934 3.96598C1.33857 3.95496 0.96604 3.85252 0.633171 3.66731V3.69765C0.633398 4.25024 0.824734 4.78574 1.17474 5.21336C1.52474 5.64097 2.01186 5.93437 2.5535 6.04381C2.20106 6.1399 1.83128 6.15387 1.47259 6.08465C1.62551 6.56034 1.92332 6.97633 2.32433 7.27442C2.72534 7.57252 3.2095 7.7378 3.70909 7.74715C3.21274 8.13715 2.64438 8.42547 2.03651 8.59563C1.42864 8.76579 0.793192 8.81444 0.166504 8.73881C1.26119 9.44134 2.53495 9.81395 3.83567 9.81215" fill="#9CA3AF"/>
</svg>
