<svg width="81" height="80" viewBox="0 0 81 80" fill="none" xmlns="http://www.w3.org/2000/svg">
<path d="M24.707 64C20.3529 64 16.8299 67.6 16.8299 72C16.8299 76.4 20.3529 80 24.707 80C29.0612 80 32.6237 76.4 32.6237 72C32.6237 67.6 29.0612 64 24.707 64ZM0.957031 0V8H8.8737L23.1237 38.36L17.7799 48.16C17.1466 49.28 16.7904 50.6 16.7904 52C16.7904 56.4 20.3529 60 24.707 60H72.207V52H26.3695C25.8154 52 25.3799 51.56 25.3799 51L25.4987 50.52L29.0612 44H58.5508C61.5195 44 64.132 42.36 65.4779 39.88L79.6487 13.92C79.9753 13.3095 80.1396 12.6239 80.1256 11.9301C80.1116 11.2363 79.9197 10.558 79.5687 9.96156C79.2178 9.36508 78.7197 8.87079 78.1232 8.52698C77.5267 8.18317 76.8521 8.0016 76.1654 8H17.6216L13.9008 0H0.957031ZM64.2904 64C59.9362 64 56.4133 67.6 56.4133 72C56.4133 76.4 59.9362 80 64.2904 80C68.6445 80 72.207 76.4 72.207 72C72.207 67.6 68.6445 64 64.2904 64Z" fill="white"/>
</svg>
