<svg width="170" height="194" viewBox="0 0 170 194" fill="none" xmlns="http://www.w3.org/2000/svg">
<path d="M90.4929 0.00824172C89.4796 0.0998133 88.4949 0.383391 87.595 0.842783C86.6951 1.30217 85.8977 1.92838 85.2482 2.68566C84.5986 3.44293 84.1098 4.31644 83.8096 5.25631C83.5093 6.19618 83.4036 7.184 83.4983 8.16337C83.6897 10.1413 84.6861 11.9648 86.2684 13.2326C87.0519 13.8604 87.9557 14.3329 88.9281 14.623C89.9005 14.9132 90.9225 15.0155 91.9358 14.9239C126.211 14.9239 153.664 41.1232 153.664 74.5865C153.664 76.5644 154.477 78.4614 155.924 79.86C157.371 81.2586 159.334 82.0443 161.38 82.0443C163.427 82.0443 165.389 81.2586 166.836 79.86C168.283 78.4614 169.096 76.5644 169.096 74.5865C169.096 33.1583 134.436 0.00824172 91.9358 0.00824172C91.6942 -0.00274724 91.4521 -0.00274724 91.2105 0.00824172C90.9689 -0.00273625 90.7268 -0.00273625 90.4852 0.00824172H90.4929ZM90.4929 29.8395C88.4465 30.0245 86.5599 30.9876 85.2482 32.517C83.9364 34.0463 83.307 36.0167 83.4983 37.9947C83.6897 39.9726 84.6861 41.7961 86.2684 43.0639C87.8508 44.3318 89.8894 44.9401 91.9358 44.7552C104.235 44.7552 111.457 47.2983 115.809 51.512C120.161 55.7257 122.8 62.736 122.8 74.5865C122.8 76.5644 123.613 78.4614 125.06 79.86C126.507 81.2586 128.47 82.0443 130.516 82.0443C132.562 82.0443 134.525 81.2586 135.972 79.86C137.419 78.4614 138.232 76.5644 138.232 74.5865C138.232 60.5658 134.883 48.9912 126.658 41.0263C118.433 33.0613 106.504 29.8395 91.9358 29.8395C91.6942 29.8286 91.4521 29.8286 91.2105 29.8395C90.9689 29.8286 90.7268 29.8286 90.4852 29.8395H90.4929ZM35.7475 38.2296C28.7259 38.1923 22.7923 40.0269 18.6256 44.0542C4.25834 57.9406 -17.2 99.8461 24.4127 140.074C62.4759 176.871 109.382 159.553 123.757 145.667C135.215 134.592 129.991 110.861 112.661 87.4065C109.405 89.9422 105.555 98.4441 107.36 101.39C115.933 115.366 118.402 127.776 112.422 133.548C103.217 142.445 77.4914 132.183 55.0377 110.481C32.5762 88.7564 21.9512 63.9218 31.1719 55.0097C36.8046 49.558 48.5408 51.2808 62.0361 58.5074C65.192 60.1929 74.1658 56.5684 76.7429 53.3764C62.0053 43.6589 47.4451 38.2967 35.7553 38.2296H35.7475ZM91.9358 59.6708C85.0917 59.6708 79.2506 63.9591 77.229 69.9254L56.4883 72.2597C55.5641 72.2197 54.642 72.3741 53.7856 72.7123C52.9292 73.0506 52.1591 73.5645 51.5284 74.2187C50.8977 74.8728 50.4215 75.6516 50.1328 76.501C49.844 77.3505 49.7495 78.2504 49.8559 79.1387C49.9623 80.0269 50.267 80.8822 50.7489 81.6454C51.2308 82.4086 51.8785 83.0616 52.6471 83.5592C53.4158 84.0568 54.287 84.3871 55.2007 84.5273C56.1144 84.6674 57.0486 84.6142 57.9389 84.3712L78.6719 82.283C79.9837 84.401 81.7815 86.1387 83.9806 87.4065L81.8124 107.446C81.5609 108.306 81.5058 109.209 81.6509 110.092C81.7959 110.975 82.1376 111.817 82.6525 112.56C83.1673 113.303 83.8428 113.929 84.6325 114.395C85.4222 114.861 86.3071 115.155 87.226 115.258C88.145 115.361 89.0761 115.27 89.955 114.991C90.8339 114.711 91.6396 114.251 92.3164 113.642C92.9932 113.032 93.5249 112.288 93.8749 111.46C94.2248 110.632 94.3846 109.741 94.3432 108.848L96.7584 88.8011C99.8494 87.8123 102.539 85.906 104.444 83.3538C106.349 80.8016 107.372 77.7335 107.368 74.5865C107.368 70.6306 105.742 66.8368 102.848 64.0395C99.9539 61.2423 96.0287 59.6708 91.9358 59.6708ZM38.4019 164.55C25.3386 170.33 16.4728 181.308 16.4728 193.912H106.65C106.65 186.126 100.802 177.035 93.6334 173.171C88.7259 174.029 83.4713 174.566 78.2012 174.566C64.2678 174.603 50.5618 171.152 38.4173 164.55H38.4019Z" fill="white"/>
</svg>
