<svg width="191" height="186" viewBox="0 0 191 186" fill="none" xmlns="http://www.w3.org/2000/svg">
<g clip-path="url(#clip0_69_450)">
<path d="M113.708 12.0789C116.147 17.8662 115.674 24.6507 112.169 29.9335C108.727 35.1207 102.617 38.2375 96.2709 37.9671C89.9848 37.6991 84.1709 34.2219 80.8094 29.0859C77.3081 23.7365 76.5618 16.8763 79.0679 10.994C81.499 5.28861 86.8463 1.0873 93.1489 0.18266C99.3315 -0.704916 105.639 1.69495 109.841 6.14102C111.48 7.87623 112.79 9.8982 113.708 12.0789V12.0789Z" fill="white"/>
<path d="M148.967 72.1033C146.392 71.8664 143.818 71.6298 141.243 71.3929C136.847 70.9887 132.451 70.5842 128.055 70.18C126.733 70.0585 125.412 69.9369 124.09 69.8154C124.015 69.8086 123.629 69.8267 123.578 69.7662C123.467 69.6358 123.356 69.5054 123.245 69.3747C121.356 67.1513 119.466 64.9279 117.576 62.7049C114.675 59.2915 111.774 55.8784 108.873 52.465C106.697 49.9047 104.521 47.3444 102.345 44.7837C101.72 44.0481 101.114 43.2957 100.379 42.6573C98.972 41.4352 97.2413 40.5886 95.3932 40.2236C94.4975 40.0468 93.5787 39.9819 92.6662 40.0308C92.2193 40.0547 91.7776 40.1338 91.3313 40.1506C90.8167 40.17 90.3039 40.1581 89.7896 40.1775C88.8021 40.2151 87.8202 40.3868 86.8811 40.6876C85.8869 41.0057 85.0256 41.5034 84.1205 41.9991C83.3325 42.4306 82.6639 42.9922 81.9239 43.4848C81.2439 43.9375 80.5638 44.3905 79.8837 44.8431C76.8164 46.8852 73.7491 48.927 70.6814 50.9691C66.9238 53.4704 63.1666 55.972 59.409 58.4732C56.8651 60.1668 54.3211 61.8603 51.7772 63.5539C51.0873 64.013 50.3532 64.4469 49.7219 64.9774C48.5027 66.0016 47.8156 67.3261 47.2989 68.7698C46.2973 71.5673 45.2955 74.3649 44.2939 77.1625C42.795 81.3491 41.296 85.5357 39.797 89.7224C38.6437 92.9436 37.4904 96.1651 36.3371 99.3863C36.1534 99.8994 35.9659 100.411 35.786 100.925C34.7302 103.891 35.8432 107.295 38.4776 109.109C41.1183 110.928 44.7714 110.818 47.2961 108.853C48.4935 107.921 49.202 106.69 49.7678 105.341C50.9761 102.461 52.1845 99.5809 53.3925 96.7007C55.1067 92.6148 56.8209 88.5289 58.5351 84.4426C59.5854 81.939 60.636 79.435 61.6862 76.9314C61.737 76.8102 61.7419 76.7433 61.858 76.6846C62.2727 76.4749 62.6874 76.2653 63.1021 76.0557C64.8664 75.1641 66.6311 74.2721 68.3954 73.3804C70.3224 72.4064 72.2497 71.4325 74.1767 70.4585C74.7948 70.1462 75.4128 69.8338 76.0304 69.5215C76.3375 69.3661 76.5955 69.234 76.8627 69.019C78.9313 67.3544 80.9164 65.5871 82.9276 63.857C82.9041 64.183 82.705 64.5138 82.5514 64.7951C82.2748 65.3021 81.9572 65.7879 81.6309 66.2658C80.785 67.5043 79.8609 68.6947 78.892 69.8437C78.424 70.3992 77.9431 70.9447 77.4411 71.4714C77.2321 71.6902 77.0197 71.906 76.801 72.1156C76.6418 72.2682 76.7035 72.4894 76.7056 72.701C76.7084 72.9898 76.7109 73.2787 76.7126 73.5675C76.7245 75.6946 76.7007 77.822 76.6352 79.9481C76.5177 83.7613 76.2373 87.5642 75.7672 91.3517C75.3518 94.6982 74.8203 98.0294 74.386 101.373C74.1266 103.37 73.8991 105.37 73.708 107.373C73.6839 107.626 73.5994 107.845 73.7799 108.037C73.7806 108.039 73.7792 108.043 73.7789 108.044C73.776 108.065 73.7729 108.086 73.7701 108.106C73.7564 108.204 73.7427 108.301 73.7291 108.398C73.5832 109.438 73.4374 110.477 73.2912 111.516C72.7321 115.499 72.173 119.482 71.6138 123.465C71.0484 127.492 70.483 131.52 69.9175 135.548C69.7636 136.643 69.6101 137.739 69.4562 138.834C69.4096 139.167 69.3696 139.339 69.2143 139.633C68.0347 141.87 66.8551 144.106 65.6755 146.344C63.6609 150.164 61.6462 153.985 59.6316 157.805C57.6822 161.502 55.7328 165.198 53.7837 168.895C52.8001 170.761 51.8161 172.626 50.8324 174.492C49.6469 176.74 49.6048 179.43 50.7795 181.694C52.2571 184.541 55.4664 186.263 58.7258 185.966C61.1492 185.745 63.3156 184.457 64.6862 182.51C65.0743 181.959 65.462 181.408 65.8501 180.857C67.7518 178.155 69.6536 175.454 71.5553 172.752C74.1371 169.084 76.7186 165.417 79.3004 161.749C81.5765 158.516 83.8527 155.282 86.1288 152.048C87.1142 150.649 88.0993 149.249 89.0847 147.849C89.9677 146.594 90.246 145.126 90.5976 143.678C90.957 142.199 91.3159 140.719 91.6752 139.239C92.6764 135.114 93.6779 130.989 94.6791 126.864C94.9256 125.849 95.1716 124.834 95.4181 123.819C95.6372 122.917 95.7816 121.961 95.9485 121.037C96.2247 119.506 96.4918 117.973 96.7603 116.44C96.7772 116.345 96.7936 116.25 96.8105 116.154C97.0057 116.428 97.0636 116.816 97.1256 117.135C97.2378 117.711 97.3034 118.296 97.357 118.88C97.4951 120.386 97.5403 121.902 97.521 123.414C97.5119 124.136 97.4863 124.858 97.4299 125.578C97.4131 125.792 97.2767 126.141 97.4183 126.323C97.6749 126.653 97.9315 126.984 98.1881 127.314C100.691 130.537 103.194 133.76 105.697 136.983C106.589 138.132 107.481 139.28 108.373 140.43C108.602 140.725 108.66 140.968 108.767 141.33C109.53 143.899 110.291 146.468 111.053 149.037C112.283 153.182 113.512 157.327 114.741 161.472C115.933 165.489 117.124 169.505 118.315 173.522C118.964 175.708 119.612 177.894 120.26 180.08C120.84 182.036 122.052 183.72 123.847 184.796C126.642 186.471 130.311 186.304 132.93 184.377C135.297 182.635 136.507 179.699 136.035 176.848C135.954 176.356 135.873 175.864 135.791 175.372C135.301 172.404 134.811 169.437 134.321 166.47C133.607 162.151 132.893 157.831 132.179 153.512C131.498 149.39 130.817 145.268 130.136 141.146C129.743 138.772 129.351 136.397 128.959 134.023C128.936 133.884 128.913 133.745 128.89 133.606C128.669 132.267 128.02 131.151 127.299 130.02C127.019 129.581 126.74 129.142 126.459 128.703C124.667 125.892 122.874 123.082 121.082 120.271C118.67 116.489 116.258 112.707 113.846 108.925C112.092 106.174 110.338 103.423 108.583 100.673C108.397 100.381 108.211 100.089 108.025 99.7974C107.984 99.7322 107.942 99.6673 107.901 99.6021C107.815 99.4673 107.963 99.1013 107.989 98.9477C108.391 96.4966 108.502 94.0056 108.556 91.5272C108.633 88.0585 108.587 84.5874 108.56 81.118C108.535 77.8818 108.364 74.6558 108.201 71.4236C108.467 71.6626 108.616 72.0572 108.753 72.3733C109.002 72.9496 109.206 73.5446 109.397 74.1413C109.882 75.6553 110.275 77.2 110.593 78.755C110.667 79.1151 110.736 79.4763 110.799 79.8385C110.828 80.0089 110.856 80.1792 110.882 80.3499C110.894 80.4291 110.889 80.7094 110.946 80.7609C111.204 80.9948 111.461 81.2286 111.719 81.4621C112.315 82.0028 112.911 82.5436 113.507 83.0847C114.68 84.1484 115.925 84.9967 117.522 85.3353C118.08 85.4538 118.644 85.4924 119.211 85.5091C120.32 85.5415 121.429 85.5743 122.537 85.6067C126.778 85.731 131.018 85.8556 135.258 85.9799C139.011 86.0898 142.764 86.2 146.517 86.31C147.441 86.3369 148.391 86.4137 149.309 86.2847C152.475 85.8396 155.06 83.354 155.531 80.2697C156.143 76.2729 153.099 72.4832 148.967 72.1033V72.1033Z" fill="white"/>
</g>
<defs>
<clipPath id="clip0_69_450">
<rect width="191" height="186" fill="white"/>
</clipPath>
</defs>
</svg>
