<svg width="164" height="163" viewBox="0 0 164 163" fill="none" xmlns="http://www.w3.org/2000/svg">
<path d="M82.0057 162.299C37.0354 162.299 0.582031 125.968 0.582031 81.1493C0.582031 36.3305 37.0354 0 82.0057 0C126.976 0 163.429 36.3305 163.429 81.1493C163.429 125.968 126.976 162.299 82.0057 162.299ZM82.0057 146.069C99.2816 146.069 115.85 139.229 128.066 127.054C140.282 114.879 147.145 98.367 147.145 81.1493C147.145 63.9316 140.282 47.4191 128.066 35.2443C115.85 23.0696 99.2816 16.2299 82.0057 16.2299C64.7298 16.2299 48.1614 23.0696 35.9455 35.2443C23.7296 47.4191 16.8668 63.9316 16.8668 81.1493C16.8668 98.367 23.7296 114.879 35.9455 127.054C48.1614 139.229 64.7298 146.069 82.0057 146.069ZM118.646 44.6321L98.2904 97.3791L45.365 117.666L65.721 64.9194L118.646 44.6321ZM82.0057 89.2642C84.1652 89.2642 86.2362 88.4092 87.7632 86.8874C89.2902 85.3655 90.148 83.3015 90.148 81.1493C90.148 78.9971 89.2902 76.933 87.7632 75.4112C86.2362 73.8893 84.1652 73.0343 82.0057 73.0343C79.8462 73.0343 77.7752 73.8893 76.2482 75.4112C74.7212 76.933 73.8633 78.9971 73.8633 81.1493C73.8633 83.3015 74.7212 85.3655 76.2482 86.8874C77.7752 88.4092 79.8462 89.2642 82.0057 89.2642Z" fill="white"/>
</svg>
