<svg width="420" height="419" viewBox="0 0 420 419" fill="none" xmlns="http://www.w3.org/2000/svg">
<rect x="7.59011" y="162.003" width="258.313" height="249.182" rx="29.1104" stroke="white" stroke-width="14.5552"/>
<path d="M311.79 0L328.498 49.7012L382.566 49.7012L338.824 80.4182L355.532 130.119L311.79 99.4024L268.048 130.119L284.756 80.4182L241.013 49.7012L295.082 49.7012L311.79 0Z" fill="white"/>
<path d="M132.204 35.8267L141.393 60.5589H171.131L147.073 75.8443L156.262 100.577L132.204 85.2912L108.146 100.577L117.335 75.8443L93.2767 60.5589H123.014L132.204 35.8267Z" fill="white"/>
<path d="M358.538 221.539L372.337 264.061H416.99L380.865 290.341L394.664 332.863L358.538 306.583L322.413 332.863L336.212 290.341L300.086 264.061H344.74L358.538 221.539Z" fill="white"/>
</svg>
