<svg width="192" height="144" viewBox="0 0 192 144" fill="none" xmlns="http://www.w3.org/2000/svg">
<path d="M181.857 0.876587H9.94148C4.67471 0.876587 0.390625 5.22623 0.390625 10.5736V133.403C0.390625 138.75 4.67471 143.1 9.94148 143.1H181.857C187.124 143.1 191.408 138.75 191.408 133.403V85.4668C191.408 85.4661 191.408 85.4657 191.408 85.4649V10.5736C191.408 5.22623 187.124 0.876587 181.857 0.876587ZM9.94148 136.635C8.18651 136.635 6.75799 135.185 6.75799 133.403V93.3028L36.3697 63.2364C37.5666 62.0053 39.6062 61.9894 40.8344 63.2523L72.3011 95.171L31.4499 136.635H9.94148ZM185.04 133.402C185.04 135.184 183.612 136.635 181.857 136.635H40.455L135.062 40.6098C136.259 39.3787 138.3 39.3628 139.525 40.6257L185.041 86.807V133.402H185.04ZM185.04 77.666L144.04 36.0677C140.431 32.3586 134.127 32.3745 130.546 36.0518L76.8034 90.6009L45.3487 58.6943C41.7391 54.9852 35.4355 54.9996 31.854 58.6803L6.75799 84.1615V10.5736C6.75799 8.79178 8.18651 7.34139 9.94148 7.34139H181.857C183.612 7.34139 185.04 8.79178 185.04 10.5736V77.666Z" fill="white"/>
<path d="M79.9806 23.5028C69.4474 23.5028 60.8789 32.2025 60.8789 42.8968C60.8789 53.5912 69.4474 62.2909 79.9806 62.2909C90.5138 62.2909 99.0823 53.5912 99.0823 42.8968C99.0823 32.2025 90.5142 23.5028 79.9806 23.5028ZM79.9806 55.8261C72.9589 55.8261 67.2463 50.0257 67.2463 42.8968C67.2463 35.768 72.9589 29.9676 79.9806 29.9676C87.0024 29.9676 92.715 35.768 92.715 42.8968C92.715 50.0257 87.0024 55.8261 79.9806 55.8261Z" fill="white"/>
</svg>
