<svg width="185" height="141" viewBox="0 0 185 141" fill="none" xmlns="http://www.w3.org/2000/svg">
<path d="M150.528 124.645H112.161C110.043 124.645 108.324 122.9 108.324 120.75C108.324 118.6 110.043 116.854 112.161 116.854H150.528C156.874 116.854 162.038 111.611 162.038 105.168V97.3774C162.038 95.2272 163.757 93.482 165.874 93.482H173.479C175.597 93.482 177.315 91.7369 177.315 89.5866V42.8418C177.315 40.6916 175.597 38.9464 173.479 38.9464H165.874C163.757 38.9464 162.038 37.2013 162.038 35.051V27.2602C162.038 20.8172 156.874 15.574 150.528 15.574H127.508C125.39 15.574 123.671 13.8289 123.671 11.6786C123.671 9.52834 125.39 7.7832 127.508 7.7832H150.528C161.102 7.7832 169.711 16.5245 169.711 27.2602V31.1556H173.479C179.825 31.1556 184.989 36.3988 184.989 42.8418V89.5866C184.989 96.0296 179.825 101.273 173.479 101.273H169.711V105.168C169.711 115.904 161.102 124.645 150.528 124.645Z" fill="white"/>
<path d="M50.7714 124.645H20.078C9.50405 124.645 0.894531 115.904 0.894531 105.168V27.2602C0.894531 16.5245 9.50405 7.7832 20.078 7.7832H73.7915C75.9094 7.7832 77.6282 9.52834 77.6282 11.6786C77.6282 13.8289 75.9094 15.574 73.7915 15.574H20.078C13.7321 15.574 8.5679 20.8172 8.5679 27.2602V105.168C8.5679 111.611 13.7321 116.854 20.078 116.854H50.7714C52.8893 116.854 54.6081 118.6 54.6081 120.75C54.6081 122.9 52.8893 124.645 50.7714 124.645Z" fill="white"/>
<path d="M70.551 140.227C69.9448 140.227 69.3233 140.079 68.7554 139.775C67.1057 138.887 66.323 136.916 66.9138 135.109L82.9819 85.6914H52.8792C51.452 85.6914 50.1475 84.889 49.4799 83.6035C48.82 82.318 48.9121 80.7677 49.7255 79.5757L102.871 1.66763C103.915 0.140632 105.902 -0.404724 107.56 0.31203C109.24 1.05995 110.169 2.90637 109.777 4.72163L98.9732 54.5282H129.613C131.071 54.5282 132.406 55.3696 133.058 56.7019C133.703 58.0341 133.542 59.6234 132.652 60.7998L73.5897 138.708C72.8453 139.697 71.7097 140.227 70.551 140.227ZM60.2073 77.9006H88.2918C89.5272 77.9006 90.6782 78.5005 91.3995 79.5133C92.1208 80.5261 92.3203 81.8272 91.929 83.0192L81.263 115.811L121.817 62.319H94.2003C93.0416 62.319 91.9367 61.7815 91.2077 60.8621C90.4787 59.9428 90.2025 58.7353 90.448 57.5822L98.0907 22.36L60.2073 77.9006Z" fill="white"/>
</svg>
