<svg width="201" height="201" viewBox="0 0 201 201" fill="none" xmlns="http://www.w3.org/2000/svg">
<g clip-path="url(#clip0_69_456)">
<path d="M54.4338 115.968C64.8278 115.968 73.2163 111.359 73.2163 99.1686V97.7565C73.2163 91.7353 70.0248 88.4648 65.6444 86.8296C69.3563 85.1196 71.3603 80.0642 71.3603 74.639C71.3603 64.6031 64.2341 61.1844 54.8047 61.1844C42.0359 61.1844 37.8798 68.6911 37.8798 74.4892C37.8798 78.0576 38.5468 79.1732 43.8918 79.1732C48.1975 79.1732 49.3117 77.4631 49.3117 74.9354C49.3117 72.0364 51.1676 71.1454 54.8047 71.1454C57.8497 71.1454 60.2993 72.1862 60.2993 76.4973C60.2993 82.5185 57.3292 82.8899 54.5086 82.8899C51.9842 82.8899 51.1676 85.1196 51.1676 87.3508C51.1676 89.5805 51.9842 91.8101 54.5086 91.8101C58.5914 91.8101 61.6364 92.776 61.6364 97.7565V99.1686C61.6364 104.001 59.8537 105.859 54.8063 105.859C51.4652 105.859 48.199 105.042 48.199 101.548C48.199 98.7223 47.01 97.6816 42.2602 97.6816C38.1759 97.6816 36.7656 98.5741 36.7656 101.919C36.7656 108.164 41.665 115.968 54.4338 115.968Z" fill="white"/>
<path d="M100.388 71.2937C103.877 71.2937 106.847 72.7806 106.847 75.6048C106.847 79.0235 109.667 79.8411 112.86 79.8411C116.572 79.8411 118.28 78.727 118.28 75.1586C118.28 68.9891 113.306 61.1844 100.76 61.1844C90.0685 61.1844 81.8281 65.9418 81.8281 78.727V98.4258C81.8281 111.211 89.8457 115.968 100.092 115.968C110.336 115.968 118.28 111.211 118.28 98.4258V97.7565C118.28 85.8638 111.153 82.1472 102.689 82.1472C99.127 82.1472 95.786 82.815 93.4095 85.416V78.727C93.4095 73.5967 96.0088 71.2937 100.388 71.2937ZM100.017 91.0659C104.249 91.0659 106.699 93.1473 106.699 98.5741V99.2434C106.699 104.372 104.249 106.602 100.092 106.602C95.934 106.602 93.4095 104.372 93.4095 99.2434V97.9047C93.4095 92.9991 96.0088 91.0659 100.017 91.0659Z" fill="white"/>
<path d="M145.529 92.4048C147.829 92.4048 149.241 90.8429 149.241 88.6133C149.241 86.3087 147.829 84.8966 145.529 84.8966C143.152 84.8966 141.742 86.3087 141.742 88.6133C141.742 90.8429 143.152 92.4048 145.529 92.4048Z" fill="white"/>
<path d="M145.45 115.968C155.695 115.968 163.712 111.211 163.712 98.4243V78.727C163.712 65.9403 155.695 61.1844 145.45 61.1844C135.204 61.1844 127.262 65.9403 127.262 78.727V98.4243C127.262 111.211 135.204 115.968 145.45 115.968ZM138.843 78.727C138.843 73.5982 141.293 71.2937 145.45 71.2937C149.608 71.2937 152.131 73.5982 152.131 78.727V98.4258C152.131 103.555 149.608 105.859 145.45 105.859C141.293 105.859 138.843 103.555 138.843 98.4258V78.727Z" fill="white"/>
<path d="M177.786 61.1326C187.481 61.1326 195.369 53.2347 195.369 43.5274C195.369 33.8201 187.481 25.9222 177.786 25.9222C168.089 25.9222 160.203 33.8201 160.203 43.5274C160.203 53.2347 168.089 61.1326 177.786 61.1326ZM177.786 37.659C181.017 37.659 183.647 40.2922 183.647 43.5274C183.647 46.7627 181.017 49.3958 177.786 49.3958C174.553 49.3958 171.925 46.7627 171.925 43.5274C171.925 40.2922 174.553 37.659 177.786 37.659Z" fill="white"/>
<path d="M182.664 83.2385C179.998 81.4031 176.348 82.077 174.514 84.7484C172.679 87.4182 173.354 91.0722 176.02 92.9091C181.751 96.8565 188.584 103.186 188.584 110.921C188.584 117.938 182.746 125.208 172.143 131.394C160.55 138.157 143.965 143.183 125.445 145.544C122.234 145.954 119.963 148.893 120.372 152.108C120.749 155.071 123.272 157.235 126.178 157.235C126.425 157.235 126.675 157.22 126.927 157.188C147.26 154.594 164.936 149.182 178.044 141.534C192.608 133.039 200.306 122.453 200.306 110.921C200.306 100.761 194.206 91.1883 182.664 83.2385Z" fill="white"/>
<path d="M88.795 133.179C86.5071 130.887 82.7952 130.887 80.5073 133.179C78.2178 135.47 78.2178 139.187 80.5073 141.478L85.6111 146.589C66.8715 145.252 49.655 141.361 36.0818 135.3C20.7625 128.457 11.9757 119.572 11.9757 110.921C11.9757 104.015 17.6627 96.8365 27.9879 90.7083C30.7734 89.0548 31.6922 85.4558 30.0423 82.6683C28.3909 79.8793 24.7965 78.9593 22.011 80.6113C4.0284 91.2845 0.253906 102.985 0.253906 110.921C0.253906 124.611 11.2828 137.075 31.3076 146.019C46.5261 152.815 65.7802 157.101 86.562 158.413L80.5073 164.477C78.2178 166.768 78.2178 170.485 80.5073 172.776C81.652 173.922 83.1508 174.495 84.6511 174.495C86.1514 174.495 87.6518 173.922 88.795 172.776L104.424 157.127C106.713 154.836 106.713 151.121 104.424 148.828L88.795 133.179Z" fill="white"/>
</g>
<defs>
<clipPath id="clip0_69_456">
<rect width="200.053" height="200.308" fill="white" transform="translate(0.253906 0.101074)"/>
</clipPath>
</defs>
</svg>
