<svg width="164" height="152" viewBox="0 0 164 152" fill="none" xmlns="http://www.w3.org/2000/svg">
<path d="M139.789 65.0186L109.742 65.0908C108.625 65.0232 107.508 65.2211 106.483 65.6681L102.212 67.5442L88.9616 37.9586C84.907 28.8665 74.1912 24.7534 65.0684 28.7943C55.9455 32.8353 51.8184 43.515 55.8731 52.6071L79.7663 106.366L66.2268 109.18C64.8511 109.541 59.0588 111.129 56.3799 117.912L51.3116 131.334L100.401 150.6C103.949 151.971 108.004 151.899 111.479 150.312L154.849 131.189C161.293 128.303 164.768 121.231 163.031 114.448L153.184 75.9148C151.591 69.709 146.161 65.3073 139.789 65.0186ZM148.984 117.984L105.615 137.178L69.9918 123.035L100.257 116.685L69.123 46.69C68.3265 44.886 69.123 42.7212 70.9331 41.9274C72.7432 41.1337 74.9153 41.9274 75.7117 43.7314L93.8127 84.5018L105.47 79.3784L139.138 79.4506L148.984 117.984ZM8.30372 32.9796L0.628906 25.3307L25.9703 0.074707L51.3116 25.3307L43.6368 32.9796L31.9074 21.2897C29.0729 32.4222 28.8258 44.0526 31.1847 55.2947C33.5436 66.5368 38.4463 77.0939 45.5193 86.1615L37.7721 93.8826C25.4273 78.5294 18.7097 59.4372 18.7299 39.7626C18.7299 33.1239 19.4539 26.6295 20.902 20.4238L8.30372 32.9796Z" fill="white"/>
</svg>
