<svg width="187" height="187" viewBox="0 0 187 187" fill="none" xmlns="http://www.w3.org/2000/svg">
<g clip-path="url(#clip0_69_429)">
<path d="M108.715 9.31781H77.6956C75.9835 9.31781 74.5938 10.7093 74.5938 12.4236C74.5938 14.138 75.9835 15.5294 77.6956 15.5294H108.715C110.427 15.5294 111.817 14.138 111.817 12.4236C111.817 10.7093 110.427 9.31781 108.715 9.31781Z" fill="white"/>
<path d="M130.434 9.31778H127.332C125.62 9.31778 124.23 10.7093 124.23 12.4236C124.23 14.1379 125.62 15.5294 127.332 15.5294H130.434C132.146 15.5294 133.536 14.1379 133.536 12.4236C133.536 10.7093 132.146 9.31778 130.434 9.31778Z" fill="white"/>
<path d="M97.065 158.403H89.3629C84.6448 158.403 80.8047 162.248 80.8047 166.972V168.473C80.8047 173.197 84.6448 177.039 89.36 177.039H97.0621C101.78 177.039 105.62 173.197 105.62 168.473V166.972C105.62 162.248 101.78 158.403 97.065 158.403ZM99.4166 168.473C99.4166 169.771 98.362 170.827 97.0654 170.827H89.3629C88.0633 170.827 87.0084 169.771 87.0084 168.473V166.972C87.0084 165.671 88.063 164.615 89.3629 164.615H97.0621C98.362 164.615 99.4166 165.671 99.4166 166.972V168.473Z" fill="white"/>
<path d="M134.733 6.10352e-05H51.6902C45.508 6.10352e-05 40.4766 5.03787 40.4766 11.228V175.129C40.4766 181.319 45.508 186.357 51.6902 186.357H134.73C140.912 186.357 145.944 181.319 145.944 175.132V11.228C145.944 5.03787 140.913 6.10352e-05 134.733 6.10352e-05ZM139.74 175.129C139.74 177.893 137.494 180.145 134.733 180.145H51.6902C48.9264 180.145 46.6806 177.893 46.6806 175.131V11.228C46.6806 8.46363 48.9264 6.21206 51.6902 6.21206H134.73C137.494 6.21206 139.74 8.46399 139.74 11.228V175.129H139.74Z" fill="white"/>
<path d="M142.842 18.6357H43.5784C41.8663 18.6357 40.4766 20.0272 40.4766 21.7415V152.191C40.4766 153.905 41.8663 155.297 43.5784 155.297H142.842C144.554 155.297 145.944 153.905 145.944 152.191V21.7415C145.944 20.0272 144.554 18.6357 142.842 18.6357ZM139.74 149.085H46.6803V24.8477H139.74V149.085Z" fill="white"/>
</g>
<defs>
<clipPath id="clip0_69_429">
<rect width="186.119" height="186.356" fill="white" transform="translate(0.148438)"/>
</clipPath>
</defs>
</svg>
