<svg width="162" height="164" viewBox="0 0 162 164" fill="none" xmlns="http://www.w3.org/2000/svg">
<g clip-path="url(#clip0_69_389)">
<path d="M148.272 34.0219H64.4994C62.6497 34.0219 61.1484 35.5462 61.1484 37.4242C61.1484 39.3022 62.6497 40.8262 64.4994 40.8262H148.272C151.968 40.8262 154.974 43.878 154.974 47.6305V136.087C154.974 139.84 151.968 142.892 148.272 142.892H14.2358C10.5398 142.892 7.53406 139.84 7.53406 136.087V47.6305C7.53406 43.878 10.5398 40.8262 14.2358 40.8262H20.9375C22.7872 40.8262 24.2885 39.3019 24.2885 37.4239V30.6196H34.3412V37.4239C34.3412 39.3019 35.8425 40.8262 37.6922 40.8262H51.0957C52.9454 40.8262 54.4467 39.3019 54.4467 37.4239V20.413H108.061V23.8153C108.061 25.6933 109.563 27.2176 111.412 27.2176C113.262 27.2176 114.763 25.6933 114.763 23.8153V20.413C114.763 16.6605 111.758 13.6088 108.062 13.6088H54.4467C50.7507 13.6088 47.745 16.6605 47.745 20.413V34.0219H41.0429V30.6196C41.0429 26.2002 37.5914 23.8153 34.3412 23.8153H24.2885C19.9357 23.8153 17.5868 27.3197 17.5868 30.6196V34.0219H14.2358C6.84356 34.0219 0.832031 40.1254 0.832031 47.6305V136.087C0.832031 143.593 6.84356 149.696 14.2358 149.696H148.272C155.664 149.696 161.676 143.593 161.676 136.087V47.6305C161.676 40.1254 155.664 34.0219 148.272 34.0219Z" fill="white"/>
<path d="M78.4641 51.0331C57.0606 51.0331 39.6484 69.3472 39.6484 91.8594C39.6484 114.372 57.0606 132.686 78.4641 132.686C99.8676 132.686 117.28 114.372 117.28 91.8594C117.28 69.3472 99.8676 51.0331 78.4641 51.0331ZM78.4641 125.881C60.6283 125.881 46.1176 110.619 46.1176 91.8594C46.1176 73.0997 60.6283 57.8374 78.4641 57.8374C96.2999 57.8374 110.811 73.0997 110.811 91.8594C110.811 110.619 96.2999 125.881 78.4641 125.881Z" fill="white"/>
<path d="M78.4668 68.0435C65.9812 68.0435 55.8242 78.7262 55.8242 91.8589C55.8242 104.992 65.9809 115.674 78.4668 115.674C90.9527 115.674 101.109 104.992 101.109 91.8589C101.109 78.7262 90.9524 68.0435 78.4668 68.0435ZM78.4668 108.87C69.5489 108.87 62.2937 101.239 62.2937 91.8589C62.2937 82.4791 69.5489 74.8481 78.4668 74.8481C87.3847 74.8481 94.6399 82.4791 94.6399 91.8589C94.6399 101.239 87.3847 108.87 78.4668 108.87Z" fill="white"/>
<path d="M136.681 47.6305H123.743C120.175 47.6305 117.273 50.6823 117.273 54.4348V61.2394C117.273 64.9919 120.175 68.0436 123.743 68.0436H136.681C140.249 68.0436 143.15 64.9919 143.15 61.2394V54.4351C143.15 50.6823 140.249 47.6305 136.681 47.6305ZM136.681 61.2394L123.743 61.2429V54.4351H136.681V61.2394Z" fill="white"/>
<path d="M33.1777 47.6305H17.0043C15.2188 47.6305 13.7695 49.1548 13.7695 51.0328C13.7695 52.9108 15.2188 54.4351 17.0043 54.4351H33.1774C34.9629 54.4351 36.4121 52.9108 36.4121 51.0328C36.4121 49.1548 34.9632 47.6305 33.1777 47.6305Z" fill="white"/>
<path d="M20.239 61.2391H17.0043C15.2188 61.2391 13.7695 62.7634 13.7695 64.6414C13.7695 66.5194 15.2188 68.0437 17.0043 68.0437H20.239C22.0245 68.0437 23.4738 66.5194 23.4738 64.6414C23.4738 62.7634 22.0245 61.2391 20.239 61.2391Z" fill="white"/>
</g>
<defs>
<clipPath id="clip0_69_389">
<rect width="160.844" height="163.305" fill="white" transform="translate(0.832031)"/>
</clipPath>
</defs>
</svg>
