<svg width="199" height="113" viewBox="0 0 199 113" fill="none" xmlns="http://www.w3.org/2000/svg">
<path d="M175.876 69.3988C172.408 68.3395 167.661 68.7285 165.274 70.2703C162.888 71.8112 163.765 73.9202 167.234 74.9804C174.689 77.2587 183.577 80.9122 183.577 85.3762C183.577 89.4265 175.983 93.6224 162.191 97.193C147.11 101.096 125.537 103.997 101.446 105.36C97.2693 105.596 94.315 107.292 94.8471 109.148C95.3375 110.858 98.6193 112.107 102.399 112.107C102.721 112.107 103.047 112.099 103.374 112.08C129.823 110.583 152.816 107.459 169.866 103.045C188.811 98.142 198.825 92.0321 198.825 85.3762C198.825 79.5124 190.889 73.9872 175.876 69.3988Z" fill="white"/>
<path d="M23.7871 69.3988C27.3353 68.3395 32.1914 68.7285 34.6327 70.2703C37.074 71.8112 36.1763 73.9202 32.6281 74.9804C25.0017 77.2587 15.9088 80.9122 15.9088 85.3762C15.9088 89.4265 23.6774 93.6224 37.7869 97.193C53.2144 101.096 75.2834 103.997 99.9277 105.36C104.201 105.596 107.223 107.292 106.679 109.148C106.177 110.858 102.82 112.107 98.9528 112.107C98.6238 112.107 98.2907 112.099 97.9556 112.08C70.8985 110.583 47.3773 107.459 29.935 103.045C10.5551 98.142 0.310646 92.0321 0.310646 85.3762C0.310646 79.5124 8.4286 73.9872 23.7871 69.3988Z" fill="white"/>
<path d="M79.1914 0L57.1409 38.1926H101.242L79.1914 0ZM75.3722 34.3733V90.6574H83.0107V34.3733H75.3722Z" fill="white"/>
<path d="M124.598 90.4551L146.648 52.2625H102.547L124.598 90.4551ZM128.417 56.0818V9.30859H120.778V56.0818H128.417Z" fill="white"/>
</svg>
