<svg width="147" height="141" viewBox="0 0 147 141" fill="none" xmlns="http://www.w3.org/2000/svg">
<path d="M49.388 0L3.83352 14.8328C2.13734 15.3793 0.925781 16.7845 0.925781 18.58V136.618C0.925781 137.653 1.35127 138.646 2.10864 139.378C2.86601 140.11 3.89322 140.521 4.9643 140.521L6.25663 140.287L49.388 124.127L97.8503 140.521L143.405 125.688C145.101 125.142 146.313 123.737 146.313 121.941V3.90337C146.313 2.86813 145.887 1.87529 145.13 1.14327C144.372 0.411247 143.345 0 142.274 0L140.982 0.234202L97.8503 16.3941L49.388 0ZM41.311 19.1265V110.465L17.0799 119.521V27.0113L41.311 19.1265ZM57.4651 19.2826L89.7733 30.2121V121.239L57.4651 110.309V19.2826ZM130.158 21.0782V113.51L105.927 121.395V30.134L130.158 21.0782ZM36.9494 25.7622L21.6838 30.9927V47.7772L36.9494 42.5467V25.7622ZM36.9494 47.2308L21.6838 52.4613V69.2458L36.9494 64.0152V47.2308ZM36.9494 68.6993L21.6838 73.9298V90.7143L36.9494 85.4838V68.6993ZM36.9494 90.1678L21.6838 95.3983V112.183L36.9494 106.952V90.1678Z" fill="white"/>
</svg>
