<svg width="162" height="143" viewBox="0 0 162 143" fill="none" xmlns="http://www.w3.org/2000/svg">
<path d="M0.871094 41.6313L15.4922 59.9207C51.8255 14.4715 110.748 14.4715 147.082 59.9207L161.703 41.6313C117.328 -13.8771 45.3192 -13.8771 0.871094 41.6313ZM59.3554 114.789L81.287 142.223L103.219 114.789C100.341 111.18 96.923 108.317 93.1596 106.363C89.3962 104.41 85.3616 103.404 81.287 103.404C77.2124 103.404 73.1778 104.41 69.4144 106.363C65.651 108.317 62.2327 111.18 59.3554 114.789ZM30.1132 78.2101L44.7343 96.4996C54.4315 84.3795 67.5788 77.5713 81.287 77.5713C94.9952 77.5713 108.143 84.3795 117.84 96.4996L132.461 78.2101C104.242 42.9116 58.405 42.9116 30.1132 78.2101Z" fill="white"/>
</svg>
